<?xml version="1.0" encoding="UTF-8" standalone="no"?>
<svg
   xmlns:dc="http://purl.org/dc/elements/1.1/"
   xmlns:cc="http://creativecommons.org/ns#"
   xmlns:rdf="http://www.w3.org/1999/02/22-rdf-syntax-ns#"
   xmlns:svg="http://www.w3.org/2000/svg"
   xmlns="http://www.w3.org/2000/svg"
   id="svg289"
   version="1.1"
   viewBox="0 0 21.872221 21.872221"
   height="21.872221mm"
   width="21.872221mm">
  <defs
     id="defs283" />
  <metadata
     id="metadata286">
    <rdf:RDF>
      <cc:Work
         rdf:about="">
        <dc:format>image/svg+xml</dc:format>
        <dc:type
           rdf:resource="http://purl.org/dc/dcmitype/StillImage" />
        <dc:title></dc:title>
      </cc:Work>
    </rdf:RDF>
  </metadata>
  <g
     transform="translate(-4.1338459e-6)"
     id="layer1">
    <g
       id="g229"
       transform="matrix(-0.35277777,0,0,-0.35277777,251.75539,271.99152)">
      <g
         style="opacity:1;stop-opacity:1"
         transform="translate(680.14433,756.0121)"
         id="g80">
        <path
           id="path82"
           style="fill:#32255e;fill-opacity:1;fill-rule:nonzero;stroke:none"
           d="m 0,0 c -0.514,0 -0.964,-0.201 -1.388,-0.422 -1.214,-0.631 -2.188,-1.881 -2.674,-3.089 0.941,0.196 1.676,-0.329 2.387,-0.828 0.489,-0.344 1.03,-0.647 1.675,-0.647 1.377,0 2.493,1.116 2.493,2.493 C 2.493,-1.116 1.377,0 0,0" />
      </g>
      <g
         id="g177"
         style="opacity:1;stop-opacity:1">
        <g
           id="g76"
           transform="translate(680.14433,751.0262)"
           style="opacity:1;stop-opacity:1">
          <path
             d="m 0,0 c -0.645,0 -1.186,0.303 -1.675,0.647 -0.711,0.499 -1.446,1.023 -2.387,0.828 0.486,1.208 1.46,2.458 2.674,3.089 C -0.964,4.784 -0.514,4.986 0,4.986 1.377,4.986 2.493,3.87 2.493,2.493 2.493,1.116 1.377,0 0,0 m 2.493,13.028 c -7.609,0 -14.391,-3.533 -18.799,-9.048 -2.901,-1.27 -4.928,-4.98 -4.928,-8.349 0,-0.633 0.072,-2.657 0.207,-2.657 h 0.129 c -0.013,0 -0.027,0.705 -0.04,0.649 0.539,0.109 1.162,0.573 1.883,0.573 7.491,0 13.563,-5.869 13.563,-13.359 0,-4.808 -2.502,-8.929 -6.274,-11.338 3.99,-2.942 8.921,-4.631 14.259,-4.631 13.285,0 24.054,10.795 24.054,24.08 0,13.285 -10.769,24.08 -24.054,24.08"
             style="fill:#ffffff;fill-opacity:1;fill-rule:nonzero;stroke:none"
             id="path78" />
        </g>
        <g
           id="g84"
           transform="translate(682.63733,715.9456)"
           style="opacity:1;stop-opacity:1">
          <path
             d="m 0,0 c -5.338,0 -10.269,1.74 -14.259,4.682 3.772,2.408 6.274,6.632 6.274,11.439 0,7.491 -6.072,13.563 -13.563,13.563 -0.72,0 -1.344,-0.872 -1.883,-0.98 0.013,0.055 0.027,-0.65 0.04,-0.65 h -0.129 c -0.135,0 -0.207,2.024 -0.207,2.658 0,3.369 2.027,6.672 4.928,7.941 4.408,5.515 11.19,9.252 18.799,9.252 13.285,0 24.054,-10.668 24.054,-23.952 C 24.054,10.668 13.285,0 0,0 m 0,55.054 c -17.121,0 -31,-13.879 -31,-31 0,-17.12 13.879,-31 31,-31 17.121,0 31,13.88 31,31 0,17.121 -13.879,31 -31,31"
             style="fill:#32255e;fill-opacity:1;fill-rule:nonzero;stroke:none"
             id="path86" />
        </g>
      </g>
    </g>
  </g>
</svg>
